# xmcd
#
# Track frame offsets:
#	150
#	14250
#	31566
#	48804
#	64552
#	83597
#	97922
#	116135
#	137745
#	154248
#	168348
#	185664
#	202902
#	218650
#	237695
#	252020
#	270233
#	291843
#
# Disc length: 4111 seconds
#
# Revision: 2
# Processed by: cddbd v1.5.2PL0 Copyright (c) Steve Scherf et al.
# Submitted via: audiograbber 1.83.01
#
DISCID=e9100d12
DTITLE=Pop Hits Monthly Nashville - PHN0305
DYEAR=2003
DGENRE=Karaoke
TTITLE0=Anthony Smith - Half A Man
TTITLE1=Jo Dee Messina - Was That My Life
TTITLE2=Kellie Coffey - Whatever It Takes
TTITLE3=Sara Evans - Backseat Of A Greyhound Bus
TTITLE4=Mark Chesnutt - I'm In Love With A Married Woman
TTITLE5=Rascal Flatts - Love You Out Loud
TTITLE6=Steve Holy - Rock A Bye Heart
TTITLE7=Craig Morgan - Almost Home
TTITLE8=Jimmy Wayne - Stay Gone
TTITLE9=Anthony Smith - Half A Man (Vocal)
TTITLE10=Jo Dee Messina  - Was That My Life (Vocal)
TTITLE11=Kellie Coffey  - Whatever It Takes (Vocal)
TTITLE12=Sara Evans  - Backseat Of A Greyhound Bus (Vocal)
TTITLE13=Mark Chesnutt  - I'm In Love With A Married Woman (Vocal)
TTITLE14=Rascal Flatts  - Love You Out Loud (Vocal)
TTITLE15=Steve Holy - Rock A Bye Heart (Vocal)
TTITLE16=Craig Morgan  - Almost Home (Vocal)
TTITLE17=Jimmy Wayne  - Stay Gone (Vocal)
EXTD=fixed vocal listings
EXTT0=
EXTT1=
EXTT2=
EXTT3=
EXTT4=
EXTT5=
EXTT6=
EXTT7=
EXTT8=
EXTT9=
EXTT10=
EXTT11=
EXTT12=
EXTT13=
EXTT14=
EXTT15=
EXTT16=
EXTT17=
PLAYORDER=
